<mxfile host="Electron" modified="2023-05-03T06:05:47.265Z" agent="Mozilla/5.0 (Macintosh; Intel Mac OS X 10_15_7) AppleWebKit/537.36 (KHTML, like Gecko) draw.io/21.2.1 Chrome/112.0.5615.87 Electron/24.1.2 Safari/537.36" etag="P98fGxAyRqtrmpuDZ_qf" version="21.2.1" type="device">
  <diagram name="페이지-1" id="b2yDpOo0w9CsPF5s2lvD">
    <mxGraphModel dx="1057" dy="1373" grid="1" gridSize="10" guides="1" tooltips="1" connect="1" arrows="1" fold="1" page="1" pageScale="1" pageWidth="1169" pageHeight="827" math="0" shadow="0">
      <root>
        <mxCell id="0" />
        <mxCell id="1" parent="0" />
        <mxCell id="pY_pHCrEfAbMs5xkIaRd-1" value="Actor 01" style="shape=umlActor;verticalLabelPosition=bottom;verticalAlign=top;html=1;" parent="1" vertex="1">
          <mxGeometry x="124.5" y="270" width="30" height="60" as="geometry" />
        </mxCell>
        <mxCell id="UuqYeJLAxNX0AO8IL156-1" value="비로그인 사용자" style="text;html=1;strokeColor=none;fillColor=none;align=center;verticalAlign=middle;whiteSpace=wrap;rounded=0;" parent="1" vertex="1">
          <mxGeometry x="92" y="240" width="95" height="30" as="geometry" />
        </mxCell>
        <mxCell id="UuqYeJLAxNX0AO8IL156-2" value="&lt;font size=&quot;1&quot;&gt;스크롤&lt;/font&gt;" style="ellipse;whiteSpace=wrap;html=1;" parent="1" vertex="1">
          <mxGeometry x="254.5" y="260" width="120" height="40" as="geometry" />
        </mxCell>
        <mxCell id="UuqYeJLAxNX0AO8IL156-3" value="&lt;font style=&quot;&quot;&gt;&lt;font size=&quot;1&quot;&gt;각 게시판 list&lt;/font&gt;&lt;br&gt;&lt;font style=&quot;font-size: 8px;&quot;&gt;(리뷰 / 사진첩 / 자유게시판)&lt;/font&gt;&lt;br&gt;&lt;/font&gt;" style="ellipse;whiteSpace=wrap;html=1;" parent="1" vertex="1">
          <mxGeometry x="254.5" y="320" width="120" height="40" as="geometry" />
        </mxCell>
        <mxCell id="1QIJcmV1OW2os6jRL2Hh-1" value="&lt;font style=&quot;&quot;&gt;&lt;font size=&quot;1&quot;&gt;게시물 상세 페이지&lt;/font&gt;&lt;br&gt;&lt;/font&gt;" style="ellipse;whiteSpace=wrap;html=1;" parent="1" vertex="1">
          <mxGeometry x="254.5" y="380" width="120" height="40" as="geometry" />
        </mxCell>
        <mxCell id="1QIJcmV1OW2os6jRL2Hh-2" value="&lt;font style=&quot;&quot;&gt;&lt;font size=&quot;1&quot;&gt;리뷰 게시물 검색&lt;/font&gt;&lt;br&gt;&lt;/font&gt;" style="ellipse;whiteSpace=wrap;html=1;" parent="1" vertex="1">
          <mxGeometry x="254.5" y="440" width="120" height="40" as="geometry" />
        </mxCell>
        <mxCell id="1QIJcmV1OW2os6jRL2Hh-3" value="&lt;font style=&quot;&quot;&gt;&lt;font size=&quot;1&quot;&gt;사진첩 게시물 검색&lt;/font&gt;&lt;br&gt;&lt;/font&gt;" style="ellipse;whiteSpace=wrap;html=1;" parent="1" vertex="1">
          <mxGeometry x="254.5" y="500" width="120" height="40" as="geometry" />
        </mxCell>
        <mxCell id="1QIJcmV1OW2os6jRL2Hh-4" value="&lt;font style=&quot;&quot;&gt;&lt;font size=&quot;1&quot;&gt;자유게시판 게시물 검색&lt;/font&gt;&lt;br&gt;&lt;/font&gt;" style="ellipse;whiteSpace=wrap;html=1;" parent="1" vertex="1">
          <mxGeometry x="254.5" y="563.5" width="120" height="40" as="geometry" />
        </mxCell>
        <mxCell id="1QIJcmV1OW2os6jRL2Hh-5" value="&lt;font style=&quot;&quot;&gt;&lt;font size=&quot;1&quot;&gt;댓글 확인&lt;/font&gt;&lt;br&gt;&lt;/font&gt;" style="ellipse;whiteSpace=wrap;html=1;" parent="1" vertex="1">
          <mxGeometry x="404.5" y="380" width="120" height="40" as="geometry" />
        </mxCell>
        <mxCell id="1QIJcmV1OW2os6jRL2Hh-6" value="" style="endArrow=none;html=1;rounded=0;entryX=0;entryY=0.5;entryDx=0;entryDy=0;" parent="1" target="UuqYeJLAxNX0AO8IL156-2" edge="1">
          <mxGeometry width="50" height="50" relative="1" as="geometry">
            <mxPoint x="165" y="300" as="sourcePoint" />
            <mxPoint x="204.5" y="310" as="targetPoint" />
          </mxGeometry>
        </mxCell>
        <mxCell id="1QIJcmV1OW2os6jRL2Hh-7" value="" style="endArrow=none;html=1;rounded=0;entryX=0;entryY=0.5;entryDx=0;entryDy=0;" parent="1" target="UuqYeJLAxNX0AO8IL156-3" edge="1">
          <mxGeometry width="50" height="50" relative="1" as="geometry">
            <mxPoint x="165" y="300" as="sourcePoint" />
            <mxPoint x="264.5" y="290" as="targetPoint" />
          </mxGeometry>
        </mxCell>
        <mxCell id="1QIJcmV1OW2os6jRL2Hh-8" value="" style="endArrow=none;html=1;rounded=0;entryX=0;entryY=0.5;entryDx=0;entryDy=0;" parent="1" target="1QIJcmV1OW2os6jRL2Hh-1" edge="1">
          <mxGeometry width="50" height="50" relative="1" as="geometry">
            <mxPoint x="164.5" y="300" as="sourcePoint" />
            <mxPoint x="254.5" y="350" as="targetPoint" />
          </mxGeometry>
        </mxCell>
        <mxCell id="1QIJcmV1OW2os6jRL2Hh-9" value="" style="endArrow=none;html=1;rounded=0;entryX=0;entryY=0.5;entryDx=0;entryDy=0;" parent="1" target="1QIJcmV1OW2os6jRL2Hh-2" edge="1">
          <mxGeometry width="50" height="50" relative="1" as="geometry">
            <mxPoint x="165" y="300" as="sourcePoint" />
            <mxPoint x="254.5" y="410" as="targetPoint" />
          </mxGeometry>
        </mxCell>
        <mxCell id="1QIJcmV1OW2os6jRL2Hh-10" value="" style="endArrow=none;html=1;rounded=0;entryX=0;entryY=0.5;entryDx=0;entryDy=0;" parent="1" target="1QIJcmV1OW2os6jRL2Hh-3" edge="1">
          <mxGeometry width="50" height="50" relative="1" as="geometry">
            <mxPoint x="165" y="300" as="sourcePoint" />
            <mxPoint x="264.5" y="470" as="targetPoint" />
          </mxGeometry>
        </mxCell>
        <mxCell id="1QIJcmV1OW2os6jRL2Hh-11" value="" style="endArrow=none;html=1;rounded=0;entryX=0;entryY=0.5;entryDx=0;entryDy=0;" parent="1" target="1QIJcmV1OW2os6jRL2Hh-4" edge="1">
          <mxGeometry width="50" height="50" relative="1" as="geometry">
            <mxPoint x="165" y="300" as="sourcePoint" />
            <mxPoint x="264.5" y="530" as="targetPoint" />
          </mxGeometry>
        </mxCell>
        <mxCell id="1QIJcmV1OW2os6jRL2Hh-12" value="" style="endArrow=none;html=1;rounded=0;" parent="1" edge="1">
          <mxGeometry width="50" height="50" relative="1" as="geometry">
            <mxPoint x="374.5" y="399.65999999999997" as="sourcePoint" />
            <mxPoint x="404.5" y="400" as="targetPoint" />
          </mxGeometry>
        </mxCell>
        <mxCell id="1QIJcmV1OW2os6jRL2Hh-13" value="Actor 02" style="shape=umlActor;verticalLabelPosition=bottom;verticalAlign=top;html=1;" parent="1" vertex="1">
          <mxGeometry x="677" y="270" width="30" height="60" as="geometry" />
        </mxCell>
        <mxCell id="1QIJcmV1OW2os6jRL2Hh-14" value="로그인을 했지만,&lt;br&gt;영수증 등록을 하지 않은 사용자" style="text;html=1;strokeColor=none;fillColor=none;align=center;verticalAlign=middle;whiteSpace=wrap;rounded=0;" parent="1" vertex="1">
          <mxGeometry x="607" y="230" width="170" height="30" as="geometry" />
        </mxCell>
        <mxCell id="1QIJcmV1OW2os6jRL2Hh-15" value="&lt;font size=&quot;1&quot;&gt;스크롤&lt;/font&gt;" style="ellipse;whiteSpace=wrap;html=1;" parent="1" vertex="1">
          <mxGeometry x="807" y="260" width="120" height="40" as="geometry" />
        </mxCell>
        <mxCell id="1QIJcmV1OW2os6jRL2Hh-16" value="&lt;font style=&quot;&quot;&gt;&lt;font size=&quot;1&quot;&gt;각 게시판 list&lt;/font&gt;&lt;br&gt;&lt;font style=&quot;font-size: 8px;&quot;&gt;(리뷰 / 사진첩 / 자유게시판)&lt;/font&gt;&lt;br&gt;&lt;/font&gt;" style="ellipse;whiteSpace=wrap;html=1;" parent="1" vertex="1">
          <mxGeometry x="807" y="320" width="120" height="40" as="geometry" />
        </mxCell>
        <mxCell id="1QIJcmV1OW2os6jRL2Hh-17" value="&lt;font style=&quot;&quot;&gt;&lt;font size=&quot;1&quot;&gt;게시물 상세 페이지&lt;/font&gt;&lt;br&gt;&lt;/font&gt;" style="ellipse;whiteSpace=wrap;html=1;" parent="1" vertex="1">
          <mxGeometry x="807" y="430" width="120" height="40" as="geometry" />
        </mxCell>
        <mxCell id="1QIJcmV1OW2os6jRL2Hh-18" value="&lt;font style=&quot;&quot;&gt;&lt;font size=&quot;1&quot;&gt;리뷰 게시물 검색&lt;/font&gt;&lt;br&gt;&lt;/font&gt;" style="ellipse;whiteSpace=wrap;html=1;" parent="1" vertex="1">
          <mxGeometry x="807" y="480" width="120" height="40" as="geometry" />
        </mxCell>
        <mxCell id="1QIJcmV1OW2os6jRL2Hh-19" value="&lt;font style=&quot;&quot;&gt;&lt;font size=&quot;1&quot;&gt;사진첩 게시물 검색&lt;/font&gt;&lt;br&gt;&lt;/font&gt;" style="ellipse;whiteSpace=wrap;html=1;" parent="1" vertex="1">
          <mxGeometry x="807" y="530" width="120" height="40" as="geometry" />
        </mxCell>
        <mxCell id="1QIJcmV1OW2os6jRL2Hh-20" value="&lt;font style=&quot;&quot;&gt;&lt;font size=&quot;1&quot;&gt;자유게시판 게시물 검색&lt;/font&gt;&lt;br&gt;&lt;/font&gt;" style="ellipse;whiteSpace=wrap;html=1;" parent="1" vertex="1">
          <mxGeometry x="807" y="583.5" width="120" height="40" as="geometry" />
        </mxCell>
        <mxCell id="1QIJcmV1OW2os6jRL2Hh-21" value="&lt;font style=&quot;&quot;&gt;&lt;font size=&quot;1&quot;&gt;댓글 확인&lt;/font&gt;&lt;br&gt;&lt;/font&gt;" style="ellipse;whiteSpace=wrap;html=1;" parent="1" vertex="1">
          <mxGeometry x="957" y="430" width="120" height="40" as="geometry" />
        </mxCell>
        <mxCell id="1QIJcmV1OW2os6jRL2Hh-22" value="" style="endArrow=none;html=1;rounded=0;entryX=0;entryY=0.5;entryDx=0;entryDy=0;" parent="1" target="1QIJcmV1OW2os6jRL2Hh-15" edge="1">
          <mxGeometry width="50" height="50" relative="1" as="geometry">
            <mxPoint x="720" y="300" as="sourcePoint" />
            <mxPoint x="757" y="310" as="targetPoint" />
          </mxGeometry>
        </mxCell>
        <mxCell id="1QIJcmV1OW2os6jRL2Hh-23" value="" style="endArrow=none;html=1;rounded=0;entryX=0;entryY=0.5;entryDx=0;entryDy=0;" parent="1" target="1QIJcmV1OW2os6jRL2Hh-16" edge="1">
          <mxGeometry width="50" height="50" relative="1" as="geometry">
            <mxPoint x="720" y="300" as="sourcePoint" />
            <mxPoint x="817" y="290" as="targetPoint" />
          </mxGeometry>
        </mxCell>
        <mxCell id="1QIJcmV1OW2os6jRL2Hh-24" value="" style="endArrow=none;html=1;rounded=0;entryX=0;entryY=0.5;entryDx=0;entryDy=0;" parent="1" target="1QIJcmV1OW2os6jRL2Hh-17" edge="1">
          <mxGeometry width="50" height="50" relative="1" as="geometry">
            <mxPoint x="720" y="300" as="sourcePoint" />
            <mxPoint x="807" y="400" as="targetPoint" />
          </mxGeometry>
        </mxCell>
        <mxCell id="1QIJcmV1OW2os6jRL2Hh-25" value="" style="endArrow=none;html=1;rounded=0;entryX=0;entryY=0.5;entryDx=0;entryDy=0;" parent="1" target="1QIJcmV1OW2os6jRL2Hh-18" edge="1">
          <mxGeometry width="50" height="50" relative="1" as="geometry">
            <mxPoint x="720" y="300" as="sourcePoint" />
            <mxPoint x="807" y="450" as="targetPoint" />
          </mxGeometry>
        </mxCell>
        <mxCell id="1QIJcmV1OW2os6jRL2Hh-26" value="" style="endArrow=none;html=1;rounded=0;entryX=0;entryY=0.5;entryDx=0;entryDy=0;" parent="1" target="1QIJcmV1OW2os6jRL2Hh-19" edge="1">
          <mxGeometry width="50" height="50" relative="1" as="geometry">
            <mxPoint x="720" y="300" as="sourcePoint" />
            <mxPoint x="817" y="500" as="targetPoint" />
          </mxGeometry>
        </mxCell>
        <mxCell id="1QIJcmV1OW2os6jRL2Hh-27" value="" style="endArrow=none;html=1;rounded=0;entryX=0;entryY=0.5;entryDx=0;entryDy=0;" parent="1" target="1QIJcmV1OW2os6jRL2Hh-20" edge="1">
          <mxGeometry width="50" height="50" relative="1" as="geometry">
            <mxPoint x="720" y="300" as="sourcePoint" />
            <mxPoint x="817" y="550" as="targetPoint" />
          </mxGeometry>
        </mxCell>
        <mxCell id="1QIJcmV1OW2os6jRL2Hh-28" value="" style="endArrow=none;html=1;rounded=0;" parent="1" edge="1">
          <mxGeometry width="50" height="50" relative="1" as="geometry">
            <mxPoint x="927" y="449.65999999999997" as="sourcePoint" />
            <mxPoint x="957" y="450" as="targetPoint" />
          </mxGeometry>
        </mxCell>
        <mxCell id="1QIJcmV1OW2os6jRL2Hh-29" value="&lt;font style=&quot;&quot;&gt;&lt;font size=&quot;1&quot;&gt;댓글 CRUD&lt;/font&gt;&lt;br&gt;&lt;/font&gt;" style="ellipse;whiteSpace=wrap;html=1;" parent="1" vertex="1">
          <mxGeometry x="957" y="380" width="120" height="40" as="geometry" />
        </mxCell>
        <mxCell id="1QIJcmV1OW2os6jRL2Hh-30" value="" style="endArrow=none;html=1;rounded=1;entryX=0;entryY=0.5;entryDx=0;entryDy=0;" parent="1" target="1QIJcmV1OW2os6jRL2Hh-29" edge="1">
          <mxGeometry width="50" height="50" relative="1" as="geometry">
            <mxPoint x="927" y="449.65999999999997" as="sourcePoint" />
            <mxPoint x="1017.5" y="449.65999999999997" as="targetPoint" />
          </mxGeometry>
        </mxCell>
        <mxCell id="1QIJcmV1OW2os6jRL2Hh-31" value="&lt;font style=&quot;font-size: 10px;&quot;&gt;&lt;font style=&quot;font-size: 10px;&quot;&gt;사진, 자유게시물 등록&lt;br&gt;&lt;/font&gt;&lt;font style=&quot;font-size: 10px;&quot; color=&quot;#cc0000&quot;&gt;(리뷰 작성 불가)&lt;/font&gt;&lt;br&gt;&lt;/font&gt;" style="ellipse;whiteSpace=wrap;html=1;" parent="1" vertex="1">
          <mxGeometry x="807" y="375" width="120" height="40" as="geometry" />
        </mxCell>
        <mxCell id="1QIJcmV1OW2os6jRL2Hh-32" value="" style="endArrow=none;html=1;rounded=0;entryX=0;entryY=0.5;entryDx=0;entryDy=0;" parent="1" target="1QIJcmV1OW2os6jRL2Hh-31" edge="1">
          <mxGeometry width="50" height="50" relative="1" as="geometry">
            <mxPoint x="720" y="300" as="sourcePoint" />
            <mxPoint x="807" y="415" as="targetPoint" />
          </mxGeometry>
        </mxCell>
        <mxCell id="8Op0x-c9G6NoBN9NF8TK-1" value="&lt;font size=&quot;1&quot;&gt;게시물 삭제 / 수정&lt;/font&gt;" style="ellipse;whiteSpace=wrap;html=1;" parent="1" vertex="1">
          <mxGeometry x="957" y="480" width="120" height="40" as="geometry" />
        </mxCell>
        <mxCell id="8Op0x-c9G6NoBN9NF8TK-2" value="" style="endArrow=none;html=1;rounded=0;entryX=0;entryY=0.5;entryDx=0;entryDy=0;exitX=1;exitY=0.5;exitDx=0;exitDy=0;" parent="1" source="1QIJcmV1OW2os6jRL2Hh-17" target="8Op0x-c9G6NoBN9NF8TK-1" edge="1">
          <mxGeometry width="50" height="50" relative="1" as="geometry">
            <mxPoint x="937" y="459.65999999999997" as="sourcePoint" />
            <mxPoint x="967" y="460" as="targetPoint" />
          </mxGeometry>
        </mxCell>
        <mxCell id="8Op0x-c9G6NoBN9NF8TK-3" value="Actor 03" style="shape=umlActor;verticalLabelPosition=bottom;verticalAlign=top;html=1;" parent="1" vertex="1">
          <mxGeometry x="149.5" y="1050" width="30" height="60" as="geometry" />
        </mxCell>
        <mxCell id="8Op0x-c9G6NoBN9NF8TK-4" value="로그인도 했고,&lt;br&gt;영수증 등록을 1회 이상 한 사용자" style="text;html=1;strokeColor=none;fillColor=none;align=center;verticalAlign=middle;whiteSpace=wrap;rounded=0;" parent="1" vertex="1">
          <mxGeometry x="79.5" y="1010" width="170" height="30" as="geometry" />
        </mxCell>
        <mxCell id="8Op0x-c9G6NoBN9NF8TK-5" value="&lt;font size=&quot;1&quot;&gt;스크롤&lt;/font&gt;" style="ellipse;whiteSpace=wrap;html=1;" parent="1" vertex="1">
          <mxGeometry x="279.5" y="1040" width="120" height="40" as="geometry" />
        </mxCell>
        <mxCell id="8Op0x-c9G6NoBN9NF8TK-6" value="&lt;font style=&quot;&quot;&gt;&lt;font size=&quot;1&quot;&gt;각 게시판 list&lt;/font&gt;&lt;br&gt;&lt;font style=&quot;font-size: 8px;&quot;&gt;(리뷰 / 사진첩 / 자유게시판)&lt;/font&gt;&lt;br&gt;&lt;/font&gt;" style="ellipse;whiteSpace=wrap;html=1;" parent="1" vertex="1">
          <mxGeometry x="279.5" y="1090" width="120" height="40" as="geometry" />
        </mxCell>
        <mxCell id="8Op0x-c9G6NoBN9NF8TK-7" value="&lt;font style=&quot;&quot;&gt;&lt;font size=&quot;1&quot;&gt;게시물 상세 페이지&lt;/font&gt;&lt;br&gt;&lt;/font&gt;" style="ellipse;whiteSpace=wrap;html=1;" parent="1" vertex="1">
          <mxGeometry x="279.5" y="1250" width="120" height="40" as="geometry" />
        </mxCell>
        <mxCell id="8Op0x-c9G6NoBN9NF8TK-8" value="&lt;font style=&quot;&quot;&gt;&lt;font size=&quot;1&quot;&gt;리뷰 게시물 검색&lt;/font&gt;&lt;br&gt;&lt;/font&gt;" style="ellipse;whiteSpace=wrap;html=1;" parent="1" vertex="1">
          <mxGeometry x="279.5" y="1300" width="120" height="40" as="geometry" />
        </mxCell>
        <mxCell id="8Op0x-c9G6NoBN9NF8TK-9" value="&lt;font style=&quot;&quot;&gt;&lt;font size=&quot;1&quot;&gt;사진첩 게시물 검색&lt;/font&gt;&lt;br&gt;&lt;/font&gt;" style="ellipse;whiteSpace=wrap;html=1;" parent="1" vertex="1">
          <mxGeometry x="279.5" y="1350" width="120" height="40" as="geometry" />
        </mxCell>
        <mxCell id="8Op0x-c9G6NoBN9NF8TK-10" value="&lt;font style=&quot;&quot;&gt;&lt;font size=&quot;1&quot;&gt;자유게시판 게시물 검색&lt;/font&gt;&lt;br&gt;&lt;/font&gt;" style="ellipse;whiteSpace=wrap;html=1;" parent="1" vertex="1">
          <mxGeometry x="279.5" y="1403.5" width="120" height="40" as="geometry" />
        </mxCell>
        <mxCell id="8Op0x-c9G6NoBN9NF8TK-11" value="&lt;font style=&quot;&quot;&gt;&lt;font size=&quot;1&quot;&gt;댓글 확인&lt;/font&gt;&lt;br&gt;&lt;/font&gt;" style="ellipse;whiteSpace=wrap;html=1;" parent="1" vertex="1">
          <mxGeometry x="429.5" y="1250" width="120" height="40" as="geometry" />
        </mxCell>
        <mxCell id="8Op0x-c9G6NoBN9NF8TK-12" value="" style="endArrow=none;html=1;rounded=0;entryX=0;entryY=0.5;entryDx=0;entryDy=0;" parent="1" target="8Op0x-c9G6NoBN9NF8TK-5" edge="1">
          <mxGeometry width="50" height="50" relative="1" as="geometry">
            <mxPoint x="190" y="1080" as="sourcePoint" />
            <mxPoint x="229.5" y="1090" as="targetPoint" />
          </mxGeometry>
        </mxCell>
        <mxCell id="8Op0x-c9G6NoBN9NF8TK-13" value="" style="endArrow=none;html=1;rounded=0;entryX=0;entryY=0.5;entryDx=0;entryDy=0;" parent="1" target="8Op0x-c9G6NoBN9NF8TK-6" edge="1">
          <mxGeometry width="50" height="50" relative="1" as="geometry">
            <mxPoint x="190" y="1080" as="sourcePoint" />
            <mxPoint x="289.5" y="1070" as="targetPoint" />
          </mxGeometry>
        </mxCell>
        <mxCell id="8Op0x-c9G6NoBN9NF8TK-14" value="" style="endArrow=none;html=1;rounded=0;entryX=0;entryY=0.5;entryDx=0;entryDy=0;" parent="1" target="8Op0x-c9G6NoBN9NF8TK-7" edge="1">
          <mxGeometry width="50" height="50" relative="1" as="geometry">
            <mxPoint x="190" y="1080" as="sourcePoint" />
            <mxPoint x="279.5" y="1220" as="targetPoint" />
          </mxGeometry>
        </mxCell>
        <mxCell id="8Op0x-c9G6NoBN9NF8TK-15" value="" style="endArrow=none;html=1;rounded=0;entryX=0;entryY=0.5;entryDx=0;entryDy=0;" parent="1" target="8Op0x-c9G6NoBN9NF8TK-8" edge="1">
          <mxGeometry width="50" height="50" relative="1" as="geometry">
            <mxPoint x="190" y="1080" as="sourcePoint" />
            <mxPoint x="279.5" y="1270" as="targetPoint" />
          </mxGeometry>
        </mxCell>
        <mxCell id="8Op0x-c9G6NoBN9NF8TK-16" value="" style="endArrow=none;html=1;rounded=0;entryX=0;entryY=0.5;entryDx=0;entryDy=0;" parent="1" target="8Op0x-c9G6NoBN9NF8TK-9" edge="1">
          <mxGeometry width="50" height="50" relative="1" as="geometry">
            <mxPoint x="190" y="1080" as="sourcePoint" />
            <mxPoint x="289.5" y="1320" as="targetPoint" />
          </mxGeometry>
        </mxCell>
        <mxCell id="8Op0x-c9G6NoBN9NF8TK-17" value="" style="endArrow=none;html=1;rounded=0;entryX=0;entryY=0.5;entryDx=0;entryDy=0;" parent="1" target="8Op0x-c9G6NoBN9NF8TK-10" edge="1">
          <mxGeometry width="50" height="50" relative="1" as="geometry">
            <mxPoint x="190" y="1080" as="sourcePoint" />
            <mxPoint x="289.5" y="1370" as="targetPoint" />
          </mxGeometry>
        </mxCell>
        <mxCell id="8Op0x-c9G6NoBN9NF8TK-18" value="" style="endArrow=none;html=1;rounded=0;" parent="1" edge="1">
          <mxGeometry width="50" height="50" relative="1" as="geometry">
            <mxPoint x="399.5" y="1269.6599999999999" as="sourcePoint" />
            <mxPoint x="429.5" y="1270" as="targetPoint" />
          </mxGeometry>
        </mxCell>
        <mxCell id="8Op0x-c9G6NoBN9NF8TK-19" value="&lt;font style=&quot;&quot;&gt;&lt;font size=&quot;1&quot;&gt;댓글 CRUD&lt;/font&gt;&lt;br&gt;&lt;/font&gt;" style="ellipse;whiteSpace=wrap;html=1;" parent="1" vertex="1">
          <mxGeometry x="429.5" y="1200" width="120" height="40" as="geometry" />
        </mxCell>
        <mxCell id="8Op0x-c9G6NoBN9NF8TK-20" value="" style="endArrow=none;html=1;rounded=1;entryX=0;entryY=0.5;entryDx=0;entryDy=0;" parent="1" target="8Op0x-c9G6NoBN9NF8TK-19" edge="1">
          <mxGeometry width="50" height="50" relative="1" as="geometry">
            <mxPoint x="399.5" y="1269.6599999999999" as="sourcePoint" />
            <mxPoint x="490" y="1269.6599999999999" as="targetPoint" />
          </mxGeometry>
        </mxCell>
        <mxCell id="8Op0x-c9G6NoBN9NF8TK-21" value="&lt;font style=&quot;font-size: 10px;&quot;&gt;&lt;font style=&quot;font-size: 10px;&quot;&gt;사진, 자유게시물 등록&lt;/font&gt;&lt;br&gt;&lt;/font&gt;" style="ellipse;whiteSpace=wrap;html=1;" parent="1" vertex="1">
          <mxGeometry x="279.5" y="1195" width="120" height="40" as="geometry" />
        </mxCell>
        <mxCell id="8Op0x-c9G6NoBN9NF8TK-22" value="" style="endArrow=none;html=1;rounded=0;entryX=0;entryY=0.5;entryDx=0;entryDy=0;" parent="1" target="8Op0x-c9G6NoBN9NF8TK-21" edge="1">
          <mxGeometry width="50" height="50" relative="1" as="geometry">
            <mxPoint x="190" y="1080" as="sourcePoint" />
            <mxPoint x="279.5" y="1235" as="targetPoint" />
          </mxGeometry>
        </mxCell>
        <mxCell id="8Op0x-c9G6NoBN9NF8TK-23" value="&lt;font size=&quot;1&quot;&gt;게시물 삭제 / 수정&lt;/font&gt;" style="ellipse;whiteSpace=wrap;html=1;" parent="1" vertex="1">
          <mxGeometry x="429.5" y="1300" width="120" height="40" as="geometry" />
        </mxCell>
        <mxCell id="8Op0x-c9G6NoBN9NF8TK-24" value="" style="endArrow=none;html=1;rounded=0;entryX=0;entryY=0.5;entryDx=0;entryDy=0;exitX=1;exitY=0.5;exitDx=0;exitDy=0;" parent="1" source="8Op0x-c9G6NoBN9NF8TK-7" target="8Op0x-c9G6NoBN9NF8TK-23" edge="1">
          <mxGeometry width="50" height="50" relative="1" as="geometry">
            <mxPoint x="409.5" y="1279.6599999999999" as="sourcePoint" />
            <mxPoint x="439.5" y="1280" as="targetPoint" />
          </mxGeometry>
        </mxCell>
        <mxCell id="8Op0x-c9G6NoBN9NF8TK-25" value="&lt;font style=&quot;font-size: 10px;&quot;&gt;&lt;font style=&quot;font-size: 10px;&quot;&gt;리뷰게시물 등록&lt;/font&gt;&lt;br&gt;&lt;/font&gt;" style="ellipse;whiteSpace=wrap;html=1;" parent="1" vertex="1">
          <mxGeometry x="279.5" y="1140" width="120" height="40" as="geometry" />
        </mxCell>
        <mxCell id="8Op0x-c9G6NoBN9NF8TK-26" value="" style="endArrow=none;html=1;rounded=0;entryX=0;entryY=0.5;entryDx=0;entryDy=0;" parent="1" target="8Op0x-c9G6NoBN9NF8TK-25" edge="1">
          <mxGeometry width="50" height="50" relative="1" as="geometry">
            <mxPoint x="190" y="1080" as="sourcePoint" />
            <mxPoint x="279.5" y="1195" as="targetPoint" />
          </mxGeometry>
        </mxCell>
        <mxCell id="Tk5wD3fdDzLRuSc4UTwn-1" value="맛.zip 회원 커뮤니티" style="swimlane;whiteSpace=wrap;html=1;" vertex="1" parent="1">
          <mxGeometry x="200" y="214" width="340" height="416" as="geometry" />
        </mxCell>
        <mxCell id="Tk5wD3fdDzLRuSc4UTwn-2" value="맛.zip 회원 커뮤니티" style="swimlane;whiteSpace=wrap;html=1;" vertex="1" parent="1">
          <mxGeometry x="770" y="207.5" width="340" height="442.5" as="geometry" />
        </mxCell>
        <mxCell id="Tk5wD3fdDzLRuSc4UTwn-4" value="맛.zip 회원 커뮤니티" style="swimlane;whiteSpace=wrap;html=1;" vertex="1" parent="1">
          <mxGeometry x="255" y="990" width="565" height="480" as="geometry" />
        </mxCell>
        <mxCell id="Tk5wD3fdDzLRuSc4UTwn-5" value="&amp;lt;&amp;lt;include&amp;gt;&amp;gt;" style="endArrow=open;endSize=12;dashed=1;html=1;rounded=0;entryX=0;entryY=0.5;entryDx=0;entryDy=0;" edge="1" parent="Tk5wD3fdDzLRuSc4UTwn-4" target="8Op0x-c9G6NoBN9NF8TK-27">
          <mxGeometry width="160" relative="1" as="geometry">
            <mxPoint x="145" y="170" as="sourcePoint" />
            <mxPoint x="225" y="170" as="targetPoint" />
          </mxGeometry>
        </mxCell>
        <mxCell id="8Op0x-c9G6NoBN9NF8TK-27" value="&lt;font style=&quot;&quot;&gt;&lt;font size=&quot;1&quot;&gt;리뷰를 등록할 영수증 선택&lt;/font&gt;&lt;br&gt;&lt;/font&gt;" style="ellipse;whiteSpace=wrap;html=1;" parent="Tk5wD3fdDzLRuSc4UTwn-4" vertex="1">
          <mxGeometry x="265" y="80" width="120" height="40" as="geometry" />
        </mxCell>
        <mxCell id="8Op0x-c9G6NoBN9NF8TK-33" value="" style="endArrow=none;html=1;rounded=0;" parent="Tk5wD3fdDzLRuSc4UTwn-4" edge="1">
          <mxGeometry width="50" height="50" relative="1" as="geometry">
            <mxPoint x="385" y="99.65999999999985" as="sourcePoint" />
            <mxPoint x="415" y="100" as="targetPoint" />
          </mxGeometry>
        </mxCell>
        <mxCell id="8Op0x-c9G6NoBN9NF8TK-34" value="&lt;font style=&quot;font-size: 10px;&quot;&gt;&lt;font style=&quot;font-size: 10px;&quot;&gt;감정분석 이용해서&lt;br&gt;&lt;/font&gt;맛집 리뷰 작성&lt;br&gt;&lt;/font&gt;" style="ellipse;whiteSpace=wrap;html=1;" parent="Tk5wD3fdDzLRuSc4UTwn-4" vertex="1">
          <mxGeometry x="415.5" y="80" width="120" height="40" as="geometry" />
        </mxCell>
        <mxCell id="Tk5wD3fdDzLRuSc4UTwn-6" value="&lt;font style=&quot;font-size: 10px;&quot;&gt;&lt;font style=&quot;font-size: 10px;&quot;&gt;영수증이 없어서&lt;br&gt;&lt;/font&gt;리뷰를 등록할 수 없음&lt;br&gt;&lt;/font&gt;" style="ellipse;whiteSpace=wrap;html=1;" vertex="1" parent="Tk5wD3fdDzLRuSc4UTwn-4">
          <mxGeometry x="265" y="130" width="120" height="40" as="geometry" />
        </mxCell>
        <mxCell id="Tk5wD3fdDzLRuSc4UTwn-7" value="&amp;lt;&amp;lt;extend&amp;gt;&amp;gt;" style="endArrow=open;endSize=12;dashed=1;html=1;rounded=0;entryX=0.975;entryY=0.304;entryDx=0;entryDy=0;exitX=0;exitY=0.5;exitDx=0;exitDy=0;entryPerimeter=0;" edge="1" parent="1" source="Tk5wD3fdDzLRuSc4UTwn-6" target="8Op0x-c9G6NoBN9NF8TK-21">
          <mxGeometry width="160" relative="1" as="geometry">
            <mxPoint x="410" y="1170" as="sourcePoint" />
            <mxPoint x="530" y="1100" as="targetPoint" />
          </mxGeometry>
        </mxCell>
      </root>
    </mxGraphModel>
  </diagram>
</mxfile>
